<?xml version="1.0" encoding="UTF-8"?>
<svg id="Calque_1" data-name="Calque 1" xmlns="http://www.w3.org/2000/svg" viewBox="0 0 280.69 85.02">
  <defs>
    <style>
      .cls-1 {
        fill: #efb719;
      }

      .cls-2 {
        fill: #fff;
      }

      .cls-3 {
        fill: #242a58;
      }
    </style>
  </defs>
  <rect class="cls-2" width="280.69" height="85.02"/>
  <path class="cls-3" d="m133.84,12.3c4.58,2.44,8.1,5.85,10.57,10.24,2.47,4.39,3.7,9.41,3.7,15.05s-1.25,10.59-3.74,14.97c-2.5,4.39-6.03,7.83-10.61,10.32-4.58,2.5-9.89,3.74-15.92,3.74h-16.31c-3.67,0-6.64-2.97-6.64-6.64V15.28c0-3.67,2.97-6.64,6.64-6.64h16.31c6.09,0,11.42,1.22,16,3.66Zm-6.13,36.24c2.69-2.58,4.03-6.22,4.03-10.94s-1.34-8.46-4.03-11.06-6.39-3.91-11.1-3.91h0c-3.09,0-5.59,2.5-5.59,5.59v18.59c0,3.09,2.5,5.59,5.59,5.59h0c4.71,0,8.42-1.29,11.1-3.87Z"/>
  <path class="cls-1" d="m173.83,26h0c0,2.65,2.15,4.8,4.8,4.8h9.18c2.65,0,4.8,2.15,4.8,4.8v2.84c0,2.65-2.15,4.8-4.8,4.8h-9.18c-2.65,0-4.8,2.15-4.8,4.8v1c0,2.65,2.15,4.8,4.8,4.8h11.68c2.65,0,4.8,2.15,4.8,4.8v3.51c0,2.65-2.15,4.8-4.8,4.8h-28.03c-2.65,0-4.8-2.15-4.8-4.8V12.9c0-2.65,2.15-4.8,4.8-4.8h28.03c2.65,0,4.8,2.15,4.8,4.8v3.51c0,2.65-2.15,4.8-4.8,4.8h-11.68c-2.65,0-4.8,2.15-4.8,4.8Z"/>
  <rect class="cls-2" x="97.27" y="8.39" width="16.12" height="58.25" rx=".27" ry=".27"/>
  <rect class="cls-3" x="91.38" y="8.51" width="16.12" height="58.25" rx=".9" ry=".9"/>
</svg>