<?xml version="1.0" encoding="UTF-8"?>
<svg id="Calque_1" data-name="Calque 1" xmlns="http://www.w3.org/2000/svg" viewBox="0 0 280.69 85.02">
  <defs>
    <style>
      .cls-1, .cls-2 {
        fill: #efb719;
      }

      .cls-3 {
        fill: #242a58;
      }

      .cls-4 {
        fill: #57b682;
      }

      .cls-2 {
        fill-rule: evenodd;
      }

      .cls-5 {
        fill: #bcbcbb;
      }
    </style>
  </defs>
  <path class="cls-3" d="m45.9,36.94c1.95,1.04,3.45,2.49,4.5,4.36s1.58,4,1.58,6.4-.53,4.5-1.59,6.37c-1.06,1.87-2.57,3.33-4.52,4.39-1.95,1.06-4.21,1.59-6.77,1.59h-7.38c-1.31,0-2.38-1.07-2.38-2.38v-19.92c0-1.31,1.07-2.38,2.38-2.38h7.38c2.59,0,4.86.52,6.81,1.56Zm-2.61,15.42c1.14-1.1,1.71-2.65,1.71-4.66s-.57-3.6-1.71-4.71-2.72-1.66-4.72-1.66h0c-1.31,0-2.38,1.07-2.38,2.38v7.91c0,1.31,1.07,2.38,2.38,2.38h0c2.01,0,3.58-.55,4.72-1.65Z"/>
  <path class="cls-3" d="m55.6,37.61c-.74-.67-1.1-1.5-1.1-2.5s.37-1.88,1.1-2.55c.73-.68,1.71-1.02,2.92-1.02s2.15.34,2.89,1.02,1.1,1.53,1.1,2.55-.37,1.84-1.1,2.5-1.7,1-2.89,1-2.19-.33-2.92-1Zm6.32,6.25v12.77c0,1.89-1.54,3.43-3.43,3.43h0c-1.89,0-3.43-1.54-3.43-3.43v-12.77c0-1.89,1.54-3.43,3.43-3.43h0c1.89,0,3.43,1.54,3.43,3.43Z"/>
  <path class="cls-3" d="m76.56,40.99c.99.54,1.76,1.26,2.29,2.17v-2.73h0s6.85,0,6.85,0h0v19.42c0,1.84-.35,3.51-1.05,4.99s-1.79,2.67-3.27,3.55c-1.48.89-3.35,1.33-5.62,1.33-3.03,0-5.46-.71-7.28-2.13-1.82-1.42-2.86-3.36-3.11-5.81h0s6.75,0,6.75,0h0c.14.63.49,1.12,1.05,1.47.56.35,1.28.53,2.17.53,2.33,0,3.5-1.31,3.5-3.92v-2.52c-.54.91-1.3,1.63-2.29,2.17-.99.54-2.15.8-3.48.8-1.56,0-2.98-.41-4.25-1.23-1.27-.82-2.27-1.99-3.01-3.52s-1.1-3.31-1.1-5.34.37-3.8,1.1-5.32c.74-1.52,1.74-2.68,3.01-3.5,1.27-.82,2.69-1.22,4.25-1.22,1.33,0,2.49.27,3.48.8Zm.64,5.75c-.57-.38-1.26-.57-1.94-.57-1.02,0-1.86.36-2.53,1.07-.68.71-1.02,1.71-1.02,2.99s.34,2.26,1.02,2.99c.66.72,1.48,1.08,2.48,1.1.69.01,1.39-.18,1.96-.55,1.12-.72,1.68-1.91,1.68-3.54s-.55-2.76-1.65-3.49Z"/>
  <path class="cls-3" d="m90.18,37.61c-.74-.67-1.1-1.5-1.1-2.5s.37-1.88,1.1-2.55c.73-.68,1.71-1.02,2.92-1.02s2.15.34,2.89,1.02,1.1,1.53,1.1,2.55-.37,1.84-1.1,2.5-1.7,1-2.89,1-2.19-.33-2.92-1Zm6.32,6.25v12.77c0,1.89-1.54,3.43-3.43,3.43h0c-1.89,0-3.43-1.54-3.43-3.43v-12.77c0-1.89,1.54-3.43,3.43-3.43h0c1.89,0,3.43,1.54,3.43,3.43Z"/>
  <path class="cls-4" d="m107.27,42.89h0c0,1.11.9,2.01,2.01,2.01h3.85c1.11,0,2.01.9,2.01,2.01v1.19c0,1.11-.9,2.01-2.01,2.01h-3.85c-1.11,0-2.01.9-2.01,2.01v.42c0,1.11.9,2.01,2.01,2.01h4.9c1.11,0,2.01.9,2.01,2.01v1.47c0,1.11-.9,2.01-2.01,2.01h-11.76c-1.11,0-2.01-.9-2.01-2.01v-20.65c0-1.11.9-2.01,2.01-2.01h11.76c1.11,0,2.01.9,2.01,2.01v1.47c0,1.11-.9,2.01-2.01,2.01h-4.9c-1.11,0-2.01.9-2.01,2.01Z"/>
  <path class="cls-4" d="m131.05,58.96l-.34-.47c-1.12-1.57-3.5-1.44-4.45.23h0c-.47.83-1.35,1.34-2.3,1.34h-1.15c-2.09,0-3.35-2.31-2.22-4.07l2.95-4.6c.59-.91.56-2.1-.08-2.98l-2.74-3.8c-1.26-1.75-.01-4.19,2.14-4.19h1.17c.85,0,1.65.41,2.15,1.1l.35.49c1.12,1.56,3.48,1.45,4.44-.22l.03-.04c.47-.82,1.35-1.33,2.29-1.33h1.05c2.11,0,3.37,2.35,2.2,4.11l-2.92,4.37c-.61.92-.59,2.12.05,3.01l2.84,3.95c1.26,1.75,0,4.19-2.15,4.19h-1.18c-.85,0-1.65-.41-2.15-1.1Z"/>
  <path class="cls-4" d="m150.71,40.99c.98-.54,2.14-.8,3.46-.8,1.56,0,2.98.41,4.25,1.22,1.27.82,2.28,1.98,3.01,3.5.74,1.52,1.1,3.29,1.1,5.32s-.37,3.81-1.1,5.34c-.73,1.53-1.74,2.7-3.01,3.52-1.27.82-2.69,1.23-4.25,1.23-1.33,0-2.48-.27-3.45-.8-.97-.54-1.73-1.26-2.29-2.17v12.11h-6.86v-29.01h6.86v2.73c.54-.91,1.29-1.63,2.27-2.17Zm3.83,6.25c-.69-.71-1.54-1.07-2.55-1.07-.68,0-1.37.2-1.93.58-1.09.73-1.63,1.89-1.63,3.48s.55,2.81,1.66,3.53c.57.38,1.27.57,1.95.56.98-.01,1.81-.38,2.49-1.1.69-.73,1.03-1.73,1.03-2.99s-.34-2.28-1.03-2.99Z"/>
  <path class="cls-4" d="m169.24,59.08c-1.55-.82-2.77-1.98-3.66-3.5-.89-1.52-1.33-3.3-1.33-5.35s.45-3.8,1.35-5.32c.9-1.52,2.12-2.68,3.67-3.5,1.55-.82,3.31-1.22,5.27-1.22s3.72.41,5.27,1.22c1.55.82,2.78,1.98,3.67,3.5.9,1.52,1.35,3.29,1.35,5.32s-.45,3.81-1.35,5.34-2.13,2.7-3.69,3.52c-1.56.82-3.33,1.23-5.29,1.23s-3.72-.41-5.27-1.23Zm7.67-5.79c.64-.71.96-1.73.96-3.06s-.32-2.34-.96-3.04-1.43-1.05-2.36-1.05-1.71.35-2.34,1.05-.95,1.71-.95,3.04.3,2.38.91,3.08c.61.7,1.39,1.05,2.34,1.05s1.76-.36,2.4-1.07Z"/>
  <path class="cls-2" d="m191.06,57.97c0-1.15.94-2.08,2.1-2.08h56.09c1.16,0,2.1.93,2.1,2.08s-.94,2.08-2.1,2.08h-56.09c-1.16,0-2.1-.93-2.1-2.08Z"/>
  <path class="cls-5" d="m198.43,13.16c-2.46,2.44-2.46,6.37-2.46,14.22v13.89c0,5.24,0,7.86,1.64,9.48,1.64,1.63,4.29,1.63,9.58,1.63h28.05c5.29,0,7.93,0,9.58-1.63,1.64-1.63,1.64-4.25,1.64-9.48v-13.89c0-7.86,0-11.78-2.46-14.22-2.46-2.44-6.43-2.44-14.36-2.44h-16.83c-7.93,0-11.9,0-14.36,2.44Z"/>
  <path class="cls-1" d="m212.8,41.96c-1.16,0-2.1.93-2.1,2.08s.94,2.08,2.1,2.08h16.83c1.16,0,2.1-.93,2.1-2.08s-.94-2.08-2.1-2.08h-16.83Z"/>
</svg>